<svg width="639" height="579" viewBox="0 0 639 579" fill="none" xmlns="http://www.w3.org/2000/svg">
<mask id="path-1-inside-1_197_806" fill="white">
<path fill-rule="evenodd" clip-rule="evenodd" d="M547.651 300.832C548.543 291.842 549 282.725 549 273.5C549 122.45 426.55 0 275.5 0C124.45 0 2 122.45 2 273.5C2 315.848 11.6248 355.949 28.8062 391.733C10.3091 432.167 0 477.129 0 524.5C0 700.955 143.045 844 319.5 844C495.955 844 639 700.955 639 524.5C639 437.413 604.157 358.464 547.651 300.832Z"/>
</mask>
<path fill-rule="evenodd" clip-rule="evenodd" d="M547.651 300.832C548.543 291.842 549 282.725 549 273.5C549 122.45 426.55 0 275.5 0C124.45 0 2 122.45 2 273.5C2 315.848 11.6248 355.949 28.8062 391.733C10.3091 432.167 0 477.129 0 524.5C0 700.955 143.045 844 319.5 844C495.955 844 639 700.955 639 524.5C639 437.413 604.157 358.464 547.651 300.832Z" fill="white"/>
<path d="M547.651 300.832L545.661 300.635L545.569 301.565L546.223 302.232L547.651 300.832ZM28.8062 391.733L30.625 392.565L31.015 391.712L30.6092 390.867L28.8062 391.733ZM547 273.5C547 282.658 546.547 291.71 545.661 300.635L549.642 301.03C550.54 291.974 551 282.791 551 273.5H547ZM275.5 2C425.445 2 547 123.555 547 273.5H551C551 121.346 427.654 -2 275.5 -2V2ZM4 273.5C4 123.555 125.555 2 275.5 2V-2C123.346 -2 0 121.346 0 273.5H4ZM30.6092 390.867C13.5547 355.347 4 315.542 4 273.5H0C0 316.154 9.69492 356.55 27.0033 392.599L30.6092 390.867ZM2 524.5C2 477.422 12.2449 432.743 30.625 392.565L26.9875 390.901C8.37336 431.591 -2 476.837 -2 524.5H2ZM319.5 842C144.15 842 2 699.85 2 524.5H-2C-2 702.06 141.94 846 319.5 846V842ZM637 524.5C637 699.85 494.85 842 319.5 842V846C497.06 846 641 702.06 641 524.5H637ZM546.223 302.232C602.377 359.505 637 437.957 637 524.5H641C641 436.868 605.937 357.422 549.079 299.432L546.223 302.232Z" fill="black" mask="url(#path-1-inside-1_197_806)"/>
</svg>
