<svg width="640" height="548" viewBox="0 0 640 548" fill="none" xmlns="http://www.w3.org/2000/svg">
<mask id="path-1-inside-1_197_821" fill="white">
<path fill-rule="evenodd" clip-rule="evenodd" d="M545.992 250.849C604.062 192.997 640 112.945 640 24.5C640 -151.955 496.955 -295 320.5 -295C144.045 -295 1 -151.955 1 24.5C1 70.4218 10.6882 114.081 28.1321 153.545C10.1207 190.013 0 231.074 0 274.5C0 425.55 122.45 548 273.5 548C424.55 548 547 425.55 547 274.5C547 266.532 546.659 258.644 545.992 250.849Z"/>
</mask>
<path fill-rule="evenodd" clip-rule="evenodd" d="M545.992 250.849C604.062 192.997 640 112.945 640 24.5C640 -151.955 496.955 -295 320.5 -295C144.045 -295 1 -151.955 1 24.5C1 70.4218 10.6882 114.081 28.1321 153.545C10.1207 190.013 0 231.074 0 274.5C0 425.55 122.45 548 273.5 548C424.55 548 547 425.55 547 274.5C547 266.532 546.659 258.644 545.992 250.849Z" fill="white"/>
<path d="M545.992 250.849L544.58 249.432L543.919 250.09L543.999 251.019L545.992 250.849ZM28.1321 153.545L29.9253 154.43L30.3396 153.591L29.9614 152.736L28.1321 153.545ZM638 24.5C638 112.392 602.289 191.94 544.58 249.432L547.403 252.266C605.835 194.054 642 113.499 642 24.5H638ZM320.5 -293C495.85 -293 638 -150.85 638 24.5H642C642 -153.06 498.06 -297 320.5 -297V-293ZM3 24.5C3 -150.85 145.15 -293 320.5 -293V-297C142.94 -297 -1 -153.06 -1 24.5H3ZM29.9614 152.736C12.6279 113.522 3 70.138 3 24.5H-1C-1 70.7056 8.7485 114.64 26.3029 154.353L29.9614 152.736ZM2 274.5C2 231.388 12.0469 190.629 29.9253 154.43L26.3389 152.659C8.19451 189.396 -2 230.76 -2 274.5H2ZM273.5 546C123.555 546 2 424.445 2 274.5H-2C-2 426.654 121.346 550 273.5 550V546ZM545 274.5C545 424.445 423.445 546 273.5 546V550C425.654 550 549 426.654 549 274.5H545ZM543.999 251.019C544.662 258.758 545 266.589 545 274.5H549C549 266.475 548.657 258.53 547.984 250.678L543.999 251.019Z" fill="black" mask="url(#path-1-inside-1_197_821)"/>
</svg>
